<?xml version="1.0" standalone="no"?>
<!DOCTYPE svg PUBLIC "-//W3C//DTD SVG 20010904//EN"
 "http://www.w3.org/TR/2001/REC-SVG-20010904/DTD/svg10.dtd">
<svg version="1.0" xmlns="http://www.w3.org/2000/svg"
 width="1920.000000pt" height="1920.000000pt" viewBox="0 0 1920.000000 1920.000000"
 preserveAspectRatio="xMidYMid meet">
<metadata>
Created by potrace 1.14, written by Peter Selinger 2001-2017
</metadata>
<g transform="translate(0.000000,1920.000000) scale(0.100000,-0.100000)"
fill="#000000" stroke="none">
<path d="M9238 19195 c-2 -2 -66 -6 -143 -9 -77 -3 -162 -8 -190 -11 -27 -2
-84 -7 -125 -10 -173 -14 -244 -22 -390 -41 -163 -21 -317 -43 -375 -54 -27
-5 -63 -12 -80 -15 -16 -2 -57 -10 -90 -16 -33 -6 -71 -13 -85 -15 -14 -3 -56
-11 -95 -20 -38 -8 -81 -17 -95 -20 -14 -2 -45 -9 -70 -14 -39 -7 -336 -83
-495 -125 -339 -90 -915 -297 -1275 -457 -415 -185 -791 -384 -1205 -638 -125
-76 -487 -322 -610 -414 -198 -148 -552 -430 -585 -466 -5 -5 -146 -131 -230
-204 -47 -42 -536 -531 -580 -581 -200 -226 -282 -322 -365 -425 -33 -41 -62
-77 -65 -80 -11 -9 -227 -295 -295 -390 -175 -243 -396 -590 -570 -895 -117
-205 -368 -711 -425 -855 -11 -27 -24 -57 -29 -67 -6 -10 -22 -47 -36 -83 -14
-36 -30 -74 -35 -85 -61 -129 -249 -676 -329 -955 -44 -157 -114 -424 -125
-483 -2 -12 -11 -52 -20 -88 -24 -104 -89 -441 -99 -515 -4 -23 -13 -84 -21
-135 -8 -52 -17 -114 -20 -139 -3 -25 -7 -61 -10 -80 -5 -37 -11 -86 -21 -185
-3 -33 -8 -73 -10 -90 -4 -27 -10 -101 -20 -236 -27 -360 -27 -1155 -1 -1384
3 -22 8 -76 11 -120 6 -88 23 -260 30 -315 3 -19 7 -55 10 -80 3 -25 8 -63 10
-85 3 -22 7 -51 10 -65 3 -14 7 -45 10 -69 3 -23 7 -55 10 -70 21 -125 47
-274 64 -361 23 -117 21 -110 51 -246 12 -55 24 -108 26 -119 5 -25 95 -365
122 -460 64 -228 229 -709 288 -842 8 -17 14 -33 14 -37 0 -20 203 -474 300
-671 211 -426 373 -709 629 -1095 53 -80 99 -149 103 -155 5 -5 27 -37 51 -70
136 -190 368 -492 473 -615 83 -97 200 -230 277 -315 101 -111 476 -487 578
-580 137 -125 227 -205 304 -270 44 -37 90 -75 102 -86 76 -64 279 -221 403
-312 80 -58 156 -115 170 -125 57 -44 419 -282 428 -282 6 0 12 -3 14 -7 2 -5
17 -16 33 -26 31 -18 166 -99 213 -128 128 -77 434 -241 643 -342 414 -203
860 -381 1293 -518 178 -57 225 -71 466 -135 164 -44 185 -49 238 -59 15 -3
35 -8 44 -11 10 -3 30 -7 45 -10 16 -3 44 -9 63 -14 19 -5 46 -11 60 -14 36
-7 181 -35 210 -41 24 -5 273 -47 355 -60 58 -9 74 -12 140 -20 33 -4 71 -8
85 -10 47 -7 105 -14 175 -21 39 -3 84 -8 100 -10 17 -1 66 -6 110 -9 44 -3
104 -8 134 -10 170 -14 356 -20 681 -20 411 0 612 9 930 40 14 2 61 6 105 10
44 4 82 9 85 10 3 2 39 6 80 10 41 4 82 8 90 10 8 2 51 8 95 15 108 15 131 19
195 30 30 5 71 12 90 15 28 5 84 15 110 20 3 1 25 5 50 9 25 5 95 19 155 32
61 14 124 27 141 30 24 4 425 106 504 129 281 80 835 270 975 335 11 5 79 33
150 64 72 30 144 61 160 70 17 9 33 16 38 16 11 0 492 238 602 298 50 27 124
68 165 92 41 23 95 54 120 68 132 74 518 321 665 426 378 269 693 523 1005
811 149 137 538 533 641 652 15 17 49 55 75 85 27 30 69 78 94 108 25 29 50
58 55 64 32 34 233 291 329 420 222 298 466 669 634 966 11 19 36 64 57 100
97 170 286 551 400 805 119 266 317 804 391 1060 9 33 27 94 40 135 27 89 33
112 39 137 2 10 25 99 50 198 25 99 50 200 55 225 5 25 12 56 14 69 45 212 99
514 111 616 4 28 8 57 10 65 5 18 26 187 40 325 3 28 8 66 10 85 3 19 7 73 10
120 4 47 8 103 10 125 13 135 20 368 19 705 0 396 -3 485 -30 819 -9 114 -21
238 -29 291 -2 14 -7 52 -11 85 -3 33 -7 67 -8 75 -2 8 -6 40 -10 70 -8 57
-13 91 -21 138 -7 48 -45 265 -55 317 -5 28 -12 64 -15 80 -3 17 -10 50 -16
75 -5 25 -17 77 -25 115 -8 39 -17 81 -20 95 -10 49 -93 367 -129 495 -65 232
-252 776 -310 902 -8 17 -15 34 -15 38 0 3 -8 25 -19 48 -10 23 -39 89 -64
147 -229 537 -548 1116 -884 1608 -148 217 -434 594 -569 752 -172 201 -160
187 -268 307 -113 123 -520 530 -646 644 -221 200 -522 447 -750 614 -52 39
-96 73 -98 77 -2 5 -9 8 -16 8 -6 0 -27 13 -46 28 -62 51 -328 227 -526 349
-91 56 -162 100 -179 109 -381 214 -635 345 -922 473 -101 44 -185 81 -188 81
-2 0 -29 11 -59 25 -30 14 -58 25 -61 25 -3 0 -25 8 -48 19 -120 53 -555 205
-802 280 -226 68 -768 203 -870 215 -11 2 -33 6 -50 10 -16 3 -41 9 -55 11
-50 10 -316 54 -360 60 -25 3 -56 8 -70 10 -23 4 -85 13 -150 20 -14 1 -43 5
-65 9 -22 3 -69 8 -105 11 -36 3 -85 8 -110 11 -101 10 -130 13 -240 19 -63 4
-133 9 -155 12 -48 5 -882 13 -887 8z"/>
</g>
</svg>
